<?xml version="1.0" encoding="UTF-8"?>
<svg xmlns="http://www.w3.org/2000/svg" xmlns:xlink="http://www.w3.org/1999/xlink" viewBox="0 0 48 48" width="48px" height="48px">
<g id="surface175929078">
<path style=" stroke:none;fill-rule:nonzero;fill:rgb(100%,100%,100%);fill-opacity:1;" d="M 24 1.921875 C 11.816406 1.921875 1.921875 11.816406 1.921875 24 C 1.921875 36.183594 11.816406 46.078125 24 46.078125 C 36.183594 46.078125 46.078125 36.183594 46.078125 24 C 46.078125 11.816406 36.183594 1.921875 24 1.921875 Z M 24 3.839844 C 35.144531 3.839844 44.160156 12.855469 44.160156 24 C 44.160156 35.144531 35.144531 44.160156 24 44.160156 C 12.855469 44.160156 3.839844 35.144531 3.839844 24 C 3.839844 12.855469 12.855469 3.839844 24 3.839844 Z M 15.359375 11.519531 C 13.78125 11.519531 12.480469 12.820312 12.480469 14.398438 C 12.480469 15.980469 13.78125 17.28125 15.359375 17.28125 C 16.9375 17.28125 18.238281 15.980469 18.238281 14.398438 C 18.238281 12.820312 16.9375 11.519531 15.359375 11.519531 Z M 15.359375 13.441406 C 15.902344 13.441406 16.320312 13.859375 16.320312 14.398438 C 16.320312 14.941406 15.902344 15.359375 15.359375 15.359375 C 14.820312 15.359375 14.398438 14.941406 14.398438 14.398438 C 14.398438 13.859375 14.820312 13.441406 15.359375 13.441406 Z M 13.441406 18.238281 C 12.910156 18.238281 12.480469 18.667969 12.480469 19.199219 L 12.480469 33.601562 C 12.480469 34.128906 12.910156 34.558594 13.441406 34.558594 L 17.28125 34.558594 C 17.808594 34.558594 18.238281 34.128906 18.238281 33.601562 L 18.238281 19.199219 C 18.238281 18.667969 17.808594 18.238281 17.28125 18.238281 Z M 21.121094 18.238281 C 20.589844 18.238281 20.160156 18.667969 20.160156 19.199219 L 20.160156 33.601562 C 20.160156 34.128906 20.589844 34.558594 21.121094 34.558594 L 24.960938 34.558594 C 25.488281 34.558594 25.921875 34.128906 25.921875 33.601562 L 25.921875 26.398438 C 25.921875 25.074219 26.996094 24 28.320312 24 C 29.644531 24 30.71875 25.074219 30.71875 26.398438 L 30.71875 33.601562 C 30.71875 34.128906 31.148438 34.558594 31.679688 34.558594 L 35.519531 34.558594 C 36.050781 34.558594 36.480469 34.128906 36.480469 33.601562 L 36.480469 25.441406 C 36.480469 21.476562 33.246094 18.238281 29.28125 18.238281 C 28.046875 18.238281 26.9375 18.640625 25.921875 19.191406 C 25.914062 18.664062 25.488281 18.238281 24.960938 18.238281 Z M 14.398438 20.160156 L 16.320312 20.160156 L 16.320312 32.640625 L 14.398438 32.640625 Z M 22.078125 20.160156 L 24 20.160156 L 24 20.945312 C 24 21.328125 24.230469 21.675781 24.585938 21.828125 C 24.9375 21.976562 25.347656 21.902344 25.625 21.636719 C 26.578125 20.722656 27.855469 20.160156 29.28125 20.160156 C 32.207031 20.160156 34.558594 22.511719 34.558594 25.441406 L 34.558594 32.640625 L 32.640625 32.640625 L 32.640625 26.398438 C 32.640625 24.027344 30.691406 22.078125 28.320312 22.078125 C 25.949219 22.078125 24 24.027344 24 26.398438 L 24 32.640625 L 22.078125 32.640625 Z M 22.078125 20.160156 "/>
</g>
</svg>
