<?xml version="1.0" encoding="UTF-8"?>
<svg xmlns="http://www.w3.org/2000/svg" xmlns:xlink="http://www.w3.org/1999/xlink" viewBox="0 0 48 48" width="48px" height="48px">
<g id="surface175926518">
<path style=" stroke:none;fill-rule:nonzero;fill:rgb(100%,100%,100%);fill-opacity:1;" d="M 14.398438 13.441406 C 20.222656 13.441406 24.960938 18.175781 24.960938 24 C 24.960938 29.824219 20.222656 34.558594 14.398438 34.558594 C 8.578125 34.558594 3.839844 29.824219 3.839844 24 C 3.839844 18.175781 8.578125 13.441406 14.398438 13.441406 M 14.398438 11.519531 C 7.507812 11.519531 1.921875 17.105469 1.921875 24 C 1.921875 30.894531 7.507812 36.480469 14.398438 36.480469 C 21.292969 36.480469 26.878906 30.894531 26.878906 24 C 26.878906 17.105469 21.292969 11.519531 14.398438 11.519531 Z M 34.078125 14.398438 C 36.117188 14.398438 38.398438 18.507812 38.398438 24 C 38.398438 29.492188 36.117188 33.601562 34.078125 33.601562 C 32.039062 33.601562 29.761719 29.492188 29.761719 24 C 29.761719 18.507812 32.039062 14.398438 34.078125 14.398438 M 34.078125 12.480469 C 30.632812 12.480469 27.839844 17.636719 27.839844 24 C 27.839844 30.363281 30.632812 35.519531 34.078125 35.519531 C 37.527344 35.519531 40.320312 30.363281 40.320312 24 C 40.320312 17.636719 37.527344 12.480469 34.078125 12.480469 Z M 44.523438 15.039062 L 44.527344 15.039062 L 44.523438 15.039062 M 43.679688 17.832031 C 43.949219 19.351562 44.160156 21.433594 44.160156 24 C 44.160156 26.566406 43.949219 28.648438 43.679688 30.167969 C 43.410156 28.648438 43.199219 26.566406 43.199219 24 C 43.199219 21.433594 43.410156 19.351562 43.679688 17.832031 M 43.679688 13.441406 C 42.355469 13.441406 41.28125 18.167969 41.28125 24 C 41.28125 29.832031 42.355469 34.558594 43.679688 34.558594 C 45.003906 34.558594 46.078125 29.832031 46.078125 24 C 46.078125 18.167969 45.003906 13.441406 43.679688 13.441406 Z M 43.679688 13.441406 "/>
</g>
</svg>
